<svg preserveAspectRatio="none" width="100%" height="100%" overflow="visible" style="display: block;" viewBox="0 0 11.6667 11.6667" fill="none" xmlns="http://www.w3.org/2000/svg">
<g id="vector">
<path fill-rule="evenodd" clip-rule="evenodd" d="M0 5.83333C0 2.61167 2.61167 0 5.83333 0C6.0581 0 6.28012 0.0127394 6.49867 0.0375814C6.65361 0.055193 6.79505 0.134108 6.89141 0.25671C6.98778 0.379312 7.03104 0.535392 7.01155 0.690108C7.00395 0.750422 7 0.812113 7 0.875C7 1.6137 7.54977 2.22494 8.26224 2.32033C8.52298 2.35524 8.72809 2.56035 8.763 2.8211C8.85839 3.53357 9.46963 4.08333 10.2083 4.08333C10.3888 4.08333 10.5604 4.05081 10.7184 3.99183C10.8736 3.93385 11.0462 3.94467 11.1931 4.02157C11.3399 4.09848 11.4471 4.23421 11.4878 4.39487C11.6047 4.8556 11.6667 5.33765 11.6667 5.83333C11.6667 9.05499 9.05499 11.6667 5.83333 11.6667C2.61167 11.6667 0 9.05499 0 5.83333ZM5.83333 1.16667C3.256 1.16667 1.16667 3.256 1.16667 5.83333C1.16667 8.41066 3.256 10.5 5.83333 10.5C8.41066 10.5 10.5 8.41066 10.5 5.83333C10.5 5.63139 10.4872 5.43264 10.4624 5.23782C10.3787 5.24588 10.294 5.25 10.2083 5.25C9.02353 5.25 8.02272 4.46549 7.69592 3.38742C6.70757 3.08781 5.96594 2.22171 5.84935 1.16669C5.84401 1.16668 5.83867 1.16667 5.83333 1.16667Z" fill="var(--fill-0, #A5A5A5)"/>
<path d="M4.66667 3.79167C4.66667 4.27492 4.27492 4.66667 3.79167 4.66667C3.30842 4.66667 2.91667 4.27492 2.91667 3.79167C2.91667 3.30842 3.30842 2.91667 3.79167 2.91667C4.27492 2.91667 4.66667 3.30842 4.66667 3.79167Z" fill="var(--fill-0, #A5A5A5)"/>
<path d="M7 5.54167C7 6.02492 6.60825 6.41667 6.125 6.41667C5.64175 6.41667 5.25 6.02492 5.25 5.54167C5.25 5.05842 5.64175 4.66667 6.125 4.66667C6.60825 4.66667 7 5.05842 7 5.54167Z" fill="var(--fill-0, #A5A5A5)"/>
<path d="M9.33333 7C9.33333 7.32217 9.07217 7.58333 8.75 7.58333C8.42783 7.58333 8.16667 7.32217 8.16667 7C8.16667 6.67783 8.42783 6.41667 8.75 6.41667C9.07217 6.41667 9.33333 6.67783 9.33333 7Z" fill="var(--fill-0, #A5A5A5)"/>
<path d="M6.41667 8.45833C6.41667 8.94158 6.02492 9.33333 5.54167 9.33333C5.05842 9.33333 4.66667 8.94158 4.66667 8.45833C4.66667 7.97508 5.05842 7.58333 5.54167 7.58333C6.02492 7.58333 6.41667 7.97508 6.41667 8.45833Z" fill="var(--fill-0, #A5A5A5)"/>
<path d="M3.5 7C3.5 7.32217 3.23883 7.58333 2.91667 7.58333C2.5945 7.58333 2.33333 7.32217 2.33333 7C2.33333 6.67783 2.5945 6.41667 2.91667 6.41667C3.23883 6.41667 3.5 6.67783 3.5 7Z" fill="var(--fill-0, #A5A5A5)"/>
</g>
</svg>
