<svg preserveAspectRatio="none" width="100%" height="100%" overflow="visible" style="display: block;" viewBox="0 0 13.5 15" fill="none" xmlns="http://www.w3.org/2000/svg">
<path id="vector" fill-rule="evenodd" clip-rule="evenodd" d="M1.5 1.5H0.75C0.335786 1.5 0 1.16421 0 0.75C0 0.335786 0.335786 0 0.75 0H12.75C13.1642 0 13.5 0.335786 13.5 0.75C13.5 1.16421 13.1642 1.5 12.75 1.5H12V3.69722C12 4.44952 11.624 5.15204 10.9981 5.56934L8.10208 7.5L10.9981 9.43066C11.624 9.84796 12 10.5505 12 11.3028V13.5H12.75C13.1642 13.5 13.5 13.8358 13.5 14.25C13.5 14.6642 13.1642 15 12.75 15H0.75C0.335786 15 0 14.6642 0 14.25C0 13.8358 0.335786 13.5 0.75 13.5H1.5V11.3028C1.5 10.5505 1.87598 9.84796 2.50192 9.43066L5.39792 7.5L2.50192 5.56934C1.87598 5.15204 1.5 4.44952 1.5 3.69722V1.5ZM3 1.5V3.69722C3 3.71491 3.00062 3.73251 3.00185 3.75H10.4981C10.4994 3.73251 10.5 3.71491 10.5 3.69722V1.5H3ZM10.5 12V11.3028C10.5 11.052 10.3747 10.8178 10.166 10.6787L6.75 8.40139L3.33397 10.6787C3.12533 10.8178 3 11.052 3 11.3028V12H10.5Z" fill="var(--fill-0, white)"/>
</svg>
