<svg preserveAspectRatio="none" width="100%" height="100%" overflow="visible" style="display: block;" viewBox="0 0 28.6667 23.3333" fill="none" xmlns="http://www.w3.org/2000/svg">
<path id="vector" d="M14.3333 22.3333C13.9276 21.5219 13.304 20.8395 12.5322 20.3625C11.7605 19.8855 10.8712 19.6667 9.964 19.6667H2.33333C1.59695 19.6667 1 19.0697 1 18.3333V2.33333C1 1.59695 1.59695 1 2.33333 1H10.3333C12.5425 1 14.3333 2.79086 14.3333 5C14.3333 2.79086 16.1242 1 18.3333 1H26.3333C27.0697 1 27.6667 1.59695 27.6667 2.33333V18.3333C27.6667 19.0697 27.0697 19.6667 26.3333 19.6667H18.7027C17.7955 19.6667 16.9062 19.8855 16.1344 20.3625C15.3627 20.8395 14.7391 21.5219 14.3333 22.3333ZM14.3333 5V22.3333" stroke="var(--stroke-0, white)" stroke-width="2" stroke-linecap="round" stroke-linejoin="round"/>
</svg>
