<svg preserveAspectRatio="none" width="100%" height="100%" overflow="visible" style="display: block;" viewBox="0 0 15.0512 15.0512" fill="none" xmlns="http://www.w3.org/2000/svg">
<g id="vector">
<path d="M15.0484 7.31896C14.1935 7.92248 13.1502 8.277 12.0242 8.277C9.12467 8.277 6.77417 5.9265 6.77417 3.027C6.77417 1.90095 7.12868 0.857706 7.73218 0.00278048C7.66355 0.000930779 7.59469 0 7.5256 0C3.36933 0 0 3.36933 0 7.5256C0 11.6819 3.36933 15.0512 7.5256 15.0512C11.6819 15.0512 15.0512 11.6819 15.0512 7.5256C15.0512 7.4565 15.0503 7.38762 15.0484 7.31896Z" fill="var(--fill-0, white)"/>
<path d="M10.7742 2.52701L11.6492 0.777008L12.5242 2.52701L14.2742 3.40201L12.5242 4.27701L11.6492 6.02701L10.7742 4.27701L9.02417 3.40201L10.7742 2.52701Z" fill="var(--fill-0, white)"/>
</g>
</svg>
