<svg preserveAspectRatio="none" width="100%" height="100%" overflow="visible" style="display: block;" viewBox="0 0 10.5874 10.5874" fill="none" xmlns="http://www.w3.org/2000/svg">
<path id="vector" d="M7.68055 0.765209L8.63959 0.600802C9.43309 0.464773 10.1226 1.15432 9.98661 1.94782L9.34283 5.70321L8.91246 8.21367L8.76511 9.0732C8.6552 9.71436 8.03925 10.1481 7.4175 9.95686C5.86847 9.48027 4.40992 8.62908 3.18413 7.40328C1.95833 6.17749 1.10714 4.71895 0.630555 3.16991C0.439263 2.54816 0.873048 1.93221 1.51421 1.8223L2.37374 1.67495M8.91246 8.21367C7.98372 8.03802 7.07943 7.70136 6.2444 7.2037M2.37374 1.67495C2.67001 3.24144 3.42432 4.73838 4.63668 5.95073C5.13025 6.44431 5.67099 6.86196 6.2444 7.2037M2.37374 1.67495L5.66101 1.11142M9.34283 5.70321C9.02428 5.26996 8.51096 4.98878 7.93197 4.98878C6.96547 4.98878 6.18197 5.77228 6.18197 6.73878C6.18197 6.89975 6.2037 7.05565 6.2444 7.2037M7.68055 0.765209C7.83797 0.964071 7.93197 1.21545 7.93197 1.48878C7.93197 2.13311 7.40963 2.65544 6.7653 2.65544C6.12097 2.65544 5.59863 2.13311 5.59863 1.48878C5.59863 1.35671 5.62058 1.22978 5.66101 1.11142M7.68055 0.765209L5.66101 1.11142" stroke="var(--stroke-0, black)" stroke-width="1.16667" stroke-linecap="square" stroke-linejoin="round"/>
</svg>
