<svg preserveAspectRatio="none" width="100%" height="100%" overflow="visible" style="display: block;" viewBox="0 0 15 15" fill="none" xmlns="http://www.w3.org/2000/svg">
<path id="vector" d="M9.16667 3.33333H0.833333M9.16667 3.33333C9.16667 1.95208 10.2854 0.833333 11.6667 0.833333C13.0479 0.833333 14.1667 1.95208 14.1667 3.33333C14.1667 4.71458 13.0479 5.83333 11.6667 5.83333C10.2854 5.83333 9.16667 4.71458 9.16667 3.33333ZM14.1667 11.6667H7.5M7.5 11.6667C7.5 13.0479 6.38125 14.1667 5 14.1667C3.61875 14.1667 2.5 13.0479 2.5 11.6667M7.5 11.6667C7.5 10.2854 6.38125 9.16667 5 9.16667C3.61875 9.16667 2.5 10.2854 2.5 11.6667M2.5 11.6667H0.833333" stroke="var(--stroke-0, black)" stroke-width="1.66667" stroke-linecap="round" stroke-linejoin="round"/>
</svg>
